# xmcd
#
# Track frame offsets:
#	183
#	16968
#	27933
#	40250
#	62895
#	76053
#	91375
#	112335
#	132788
#	151035
#
# Disc length: 2201 seconds
#
# Revision: 0
# Processed by: cddbd v1.5.1PL2 Copyright (c) Steve Scherf et al.
# Submitted via: dBpowerAMP V4.0
#
DISCID=7508970a
DTITLE=Various Artist - THE SOUND OF CAMPARI  Teenage Rebels
DYEAR=1900
DGENRE=
TTITLE0=CHI-LITES -  Oh Girl
TTITLE1=ROY ORBISON - Only the Lonely
TTITLE2=GENE PITNEY - Hals Heaven
TTITLE3=LONDON STUDIO ORCHESTRA - Careless Whisper
TTITLE4=PERCY SLEDGE- When a Man Loves a Woman
TTITLE5=KRIS KRISTOFERSON -  Help Me
TTITLE6=GLADYS KNIIGHT&THE PIPS - Midnight Train To Georgia
TTITLE7=LONDON STUDIO ORCHESTRA - My Way
TTITLE8=PROCOL HARUM - A White Shade Of Pale
TTITLE9=PETULA CLARK - Downtown
EXTD=
EXTT0=
EXTT1=
EXTT2=
EXTT3=
EXTT4=
EXTT5=
EXTT6=
EXTT7=
EXTT8=
EXTT9=
PLAYORDER=
